<svg xmlns="http://www.w3.org/2000/svg" width="600" height="600" viewBox="0 0 403 350" fill="none">
    <path fill-rule="evenodd" clip-rule="evenodd" d="M124.35 90.9902H178.95V136.35H224.31V190.95C224.284 200.583 220.445 209.813 213.634 216.624C206.823 223.436 197.592 227.274 187.96 227.3H124.35C114.717 227.274 105.487 223.436 98.6758 216.624C91.8646 209.813 88.0264 200.583 88 190.95V127.34C88.0264 117.708 91.8646 108.477 98.6758 101.666C105.487 94.8548 114.717 91.0166 124.35 90.9902ZM142.52 136.43C140.114 136.438 137.809 137.397 136.108 139.098C134.407 140.8 133.448 143.105 133.44 145.51V172.78C133.445 175.187 134.404 177.493 136.105 179.195C137.807 180.897 140.113 181.855 142.52 181.86H169.79C172.196 181.852 174.501 180.893 176.202 179.192C177.903 177.491 178.862 175.186 178.87 172.78V136.43H142.52Z" fill="white"/>
    <path fill-rule="evenodd" clip-rule="evenodd" d="M278.94 136.32H224.34V90.95H178.97V36.35C178.999 26.7183 182.838 17.4894 189.648 10.6787C196.459 3.86805 205.688 0.0290153 215.32 0H278.94C288.571 0.0290153 297.8 3.86805 304.611 10.6787C311.422 17.4894 315.261 26.7183 315.29 36.35V99.97C315.261 109.602 311.422 118.831 304.611 125.641C297.8 132.452 288.571 136.291 278.94 136.32ZM260.76 90.88C263.168 90.8721 265.476 89.9119 267.179 88.2089C268.882 86.5059 269.842 84.1984 269.85 81.79V54.53C269.842 52.1216 268.882 49.8141 267.179 48.1111C265.476 46.4081 263.168 45.4479 260.76 45.44H233.5C231.091 45.4479 228.784 46.4081 227.081 48.1111C225.378 49.8141 224.418 52.1216 224.41 54.53V90.88H260.76Z" fill="white"/>
    <path d="M25.24 324.2C25.4 324.2 25.5333 324.427 25.64 324.88C25.7467 325.333 25.8 325.893 25.8 326.56V332.6C25.8 333.267 25.7333 333.84 25.6 334.32C25.4933 334.773 25.3733 335 25.24 335H24.36C21.7733 335 20.08 334.147 19.28 332.44L19.04 333.16C18.8 333.96 18.4133 334.44 17.88 334.6C17.0533 334.84 16.0933 335.04 15 335.2C13.9333 335.387 12.8933 335.48 11.88 335.48C5.82667 335.48 2.8 332.853 2.8 327.6C2.8 326.96 2.88 325.733 3.04 323.92L3.12 322.96H9.72V324.28C9.72 324.493 9.76 324.64 9.84 324.72C9.92 324.8 10.1467 324.853 10.52 324.88C10.92 324.88 11.4533 324.88 12.12 324.88C13.2933 324.88 14.3067 324.827 15.16 324.72L12 314L19.76 309.88L22.44 322.92C22.52 323.347 22.68 323.653 22.92 323.84C23.1867 324.027 23.4533 324.133 23.72 324.16C24.0133 324.187 24.52 324.2 25.24 324.2ZM33.1944 310.88L27.4344 306.08L32.2344 300.32L37.9544 305.12L33.1944 310.88ZM38.5544 314.48C38.9544 319.627 39.1544 323.453 39.1544 325.96C39.1544 327.267 38.941 328.507 38.5144 329.68C38.1144 330.827 37.3277 331.853 36.1544 332.76C34.2344 334.253 30.5944 335 25.2344 335C25.101 335 24.981 334.773 24.8744 334.32C24.741 333.84 24.6744 333.267 24.6744 332.6V326.56C24.6744 325.893 24.7277 325.333 24.8344 324.88C24.941 324.427 25.0744 324.2 25.2344 324.2C26.941 324.2 28.261 324.173 29.1944 324.12C30.1277 324.04 30.901 323.92 31.5144 323.76L30.4744 315.96L38.5544 314.48ZM57.6009 324.2C57.7609 324.2 57.8943 324.427 58.0009 324.88C58.1076 325.333 58.1609 325.893 58.1609 326.56V332.6C58.1609 333.267 58.0943 333.84 57.9609 334.32C57.8543 334.773 57.7343 335 57.6009 335H57.0009C55.8543 335 54.8943 334.533 54.1209 333.6C53.9876 335.68 53.5609 337.507 52.8409 339.08C52.1209 340.653 50.8676 342.227 49.0809 343.8C47.3209 345.4 44.8143 347.133 41.5609 349L35.9609 340.76C38.8943 339.133 41.0409 337.907 42.4009 337.08C43.7609 336.253 44.7876 335.507 45.4809 334.84C46.2009 334.173 46.7476 333.427 47.1209 332.6L45.0409 319.92L53.2409 318.24L53.4809 320.28L53.6809 321.88C53.7876 322.707 53.9076 323.253 54.0409 323.52C54.1743 323.787 54.4409 323.973 54.8409 324.08C55.2676 324.16 56.0543 324.2 57.2009 324.2H57.6009ZM70.9372 314.48C71.3372 319.627 71.5372 323.453 71.5372 325.96C71.5372 327.267 71.3239 328.507 70.8972 329.68C70.4972 330.827 69.7105 331.853 68.5372 332.76C66.6172 334.253 62.9772 335 57.6172 335C57.4839 335 57.3639 334.773 57.2572 334.32C57.1239 333.84 57.0572 333.267 57.0572 332.6V326.56C57.0572 325.893 57.1105 325.333 57.2172 324.88C57.3239 324.427 57.4572 324.2 57.6172 324.2C59.3239 324.2 60.6439 324.173 61.5772 324.12C62.5105 324.04 63.2839 323.92 63.8972 323.76L62.8572 315.96L70.9372 314.48ZM60.6172 339.4L66.3772 344.2L61.5772 349.96L55.8172 345.16L60.6172 339.4ZM114.053 306.96L109.173 302.92L113.293 298.08L118.133 302.08L114.053 306.96ZM110.533 314.16L105.653 310.04L109.773 305.16L114.053 308.76L117.413 304.8L122.253 308.8L118.173 313.64L113.893 310.04L110.533 314.16ZM135.413 324.2C135.573 324.2 135.706 324.427 135.813 324.88C135.919 325.333 135.973 325.893 135.973 326.56V332.6C135.973 333.267 135.906 333.84 135.773 334.32C135.666 334.773 135.546 335 135.413 335H134.613C133.386 335 132.279 334.813 131.293 334.44C130.333 334.04 129.653 333.44 129.253 332.64C127.813 334.213 125.693 335 122.893 335C121.799 335 120.839 334.76 120.013 334.28C119.213 333.8 118.613 333.107 118.213 332.2C117.759 333.08 117.053 333.773 116.093 334.28C115.133 334.76 114.119 335 113.053 335C111.933 335 110.959 334.733 110.133 334.2C110.159 334.707 110.173 335.413 110.173 336.32C110.173 339.44 108.813 341.627 106.093 342.88C103.399 344.133 100.346 344.76 96.9328 344.76C92.6661 344.76 89.4928 343.987 87.4128 342.44C85.3595 340.92 84.3328 338.813 84.3328 336.12C84.3328 332.04 85.0528 326.613 86.4928 319.84L93.0128 321.16C92.6395 323.347 92.2928 325.547 91.9728 327.76C91.6528 329.947 91.4928 331.373 91.4928 332.04C91.4928 332.653 91.6395 333.093 91.9328 333.36C92.2261 333.627 92.6928 333.8 93.3328 333.88C93.9728 333.933 95.0395 333.96 96.5328 333.96C97.9461 333.96 99.0661 333.933 99.8928 333.88C100.719 333.8 101.639 333.68 102.653 333.52L100.613 319.28L108.533 317.48L109.093 322.56C109.306 323.653 109.999 324.2 111.173 324.2C111.893 324.2 112.439 324.12 112.813 323.96L112.733 317.64L119.893 317.24L120.093 323.96C120.413 324.12 120.879 324.2 121.493 324.2C122.399 324.2 123.253 324.067 124.053 323.8L122.933 315.96L131.053 314.48L131.733 322.8C131.786 323.307 131.853 323.653 131.933 323.84C132.039 324 132.253 324.107 132.573 324.16C132.919 324.187 133.599 324.2 134.613 324.2H135.413ZM152.55 307.68L147.67 303.64L151.79 298.8L156.63 302.8L152.55 307.68ZM149.03 314.88L144.15 310.76L148.27 305.88L152.55 309.48L155.91 305.52L160.75 309.52L156.67 314.36L152.39 310.76L149.03 314.88ZM172.75 324.2C172.91 324.2 173.043 324.427 173.15 324.88C173.256 325.333 173.31 325.893 173.31 326.56V332.6C173.31 333.267 173.243 333.84 173.11 334.32C173.003 334.773 172.883 335 172.75 335H171.95C170.776 335 169.696 334.76 168.71 334.28C167.723 333.773 167.096 333.027 166.83 332.04C165.39 334.013 163.11 335 159.99 335C158.39 335 157.016 334.76 155.87 334.28C154.723 333.8 153.91 333.107 153.43 332.2C152.923 333.213 152.096 333.933 150.95 334.36C149.83 334.787 148.59 335 147.23 335C145.896 335 144.736 334.787 143.75 334.36C142.763 333.907 142.003 333.307 141.47 332.56C140.483 334.187 138.47 335 135.43 335C135.296 335 135.176 334.773 135.07 334.32C134.936 333.84 134.87 333.267 134.87 332.6V326.56C134.87 325.893 134.923 325.333 135.03 324.88C135.136 324.427 135.27 324.2 135.43 324.2C136.416 324.2 137.203 324.187 137.79 324.16C138.403 324.107 138.896 323.987 139.27 323.8L139.19 318.76L146.43 318.68L146.51 322.64C146.536 323.227 146.67 323.64 146.91 323.88C147.15 324.093 147.536 324.2 148.07 324.2C148.843 324.2 149.456 324.12 149.91 323.96L149.83 317.64L156.99 317.24L157.19 323.96C157.563 324.12 158.15 324.2 158.95 324.2C159.643 324.2 160.376 324.08 161.15 323.84L160.03 315.96L168.11 314.48L168.91 322.8C168.963 323.253 169.07 323.573 169.23 323.76C169.39 323.947 169.656 324.067 170.03 324.12C170.403 324.173 171.043 324.2 171.95 324.2H172.75ZM187.614 310.76L181.894 306L186.654 300.24L192.414 305.04L187.614 310.76ZM191.654 314.44C193.414 315.16 195.028 315.72 196.494 316.12C197.961 316.493 199.561 316.68 201.294 316.68L199.014 327.24C198.374 327.293 197.721 327.48 197.054 327.8C196.414 328.12 195.521 328.64 194.374 329.36C194.134 329.52 193.694 329.8 193.054 330.2C192.414 330.6 191.788 330.96 191.174 331.28C188.588 332.72 186.188 333.707 183.974 334.24C181.761 334.747 178.934 335 175.494 335H172.734C172.601 335 172.481 334.773 172.374 334.32C172.241 333.84 172.174 333.267 172.174 332.6V326.56C172.174 325.893 172.228 325.333 172.334 324.88C172.441 324.427 172.574 324.2 172.734 324.2H175.494C179.334 324.2 182.681 323.973 185.534 323.52C187.214 323.307 188.868 323.013 190.494 322.64L190.254 322.6C189.214 322.333 188.108 321.987 186.934 321.56C185.281 320.867 184.041 320.52 183.214 320.52C182.734 320.52 182.334 320.667 182.014 320.96C181.694 321.227 181.414 321.733 181.174 322.48L174.934 321C175.441 318.227 176.334 316.04 177.614 314.44C178.894 312.813 180.654 312 182.894 312C184.148 312 185.321 312.173 186.414 312.52C187.534 312.84 188.974 313.347 190.734 314.04C190.921 314.147 191.228 314.28 191.654 314.44ZM196.586 340.76C199.519 339.133 201.666 337.907 203.026 337.08C204.386 336.253 205.413 335.507 206.106 334.84C206.826 334.173 207.373 333.427 207.746 332.6L205.666 319.92L213.866 318.24C214.506 323.28 214.826 327.44 214.826 330.72C214.826 333.52 214.546 335.827 213.986 337.64C213.453 339.48 212.279 341.293 210.466 343.08C208.679 344.893 205.919 346.867 202.186 349L196.586 340.76ZM231.602 309.8C234.562 312.28 236.855 314.973 238.482 317.88C240.135 320.787 240.962 323.827 240.962 327C240.962 329.56 240.228 331.547 238.762 332.96C237.828 333.947 236.495 334.68 234.762 335.16C233.055 335.64 231.108 335.88 228.922 335.88C226.095 335.88 223.868 335.28 222.242 334.08C220.615 332.853 219.802 330.813 219.802 327.96C219.802 326.893 219.908 325.347 220.122 323.32L226.722 323.36V324.16C226.722 324.587 226.748 324.867 226.802 325C226.882 325.133 227.068 325.213 227.362 325.24C227.655 325.267 228.242 325.28 229.122 325.28C229.842 325.28 231.162 325.227 233.082 325.12C232.735 324.24 232.068 323.2 231.082 322C230.122 320.8 228.508 319.16 226.242 317.08L231.602 309.8ZM264.315 324.2C264.475 324.2 264.609 324.427 264.715 324.88C264.822 325.333 264.875 325.893 264.875 326.56V332.6C264.875 333.267 264.809 333.84 264.675 334.32C264.569 334.773 264.449 335 264.315 335H263.475C261.049 335 259.102 334.68 257.635 334.04C256.195 333.4 255.089 332.213 254.315 330.48C253.569 328.72 253.169 326.2 253.115 322.92L252.795 304.44L260.995 303.24L260.795 321.4C260.769 322.413 260.929 323.133 261.275 323.56C261.649 323.987 262.355 324.2 263.395 324.2H264.315ZM268.297 312.04L263.177 307.68L267.497 302.52L272.177 306.44L275.857 302.08L281.017 306.48L276.657 311.6L272.017 307.68L268.297 312.04ZM277.617 314.48C278.017 319.627 278.217 323.453 278.217 325.96C278.217 327.267 278.004 328.507 277.577 329.68C277.177 330.827 276.39 331.853 275.217 332.76C273.297 334.253 269.657 335 264.297 335C264.164 335 264.044 334.773 263.937 334.32C263.804 333.84 263.737 333.267 263.737 332.6V326.56C263.737 325.893 263.79 325.333 263.897 324.88C264.004 324.427 264.137 324.2 264.297 324.2C266.004 324.2 267.324 324.173 268.257 324.12C269.19 324.04 269.964 323.92 270.577 323.76L269.537 315.96L277.617 314.48ZM300.133 335.56C298.026 335.56 296.293 335.187 294.933 334.44C293.573 333.693 292.573 332.72 291.933 331.52C291.319 330.32 291.013 329.027 291.013 327.64C291.013 326.093 291.279 324.6 291.813 323.16C292.373 321.693 293.359 319.947 294.773 317.92L292.733 316.52L297.973 309.08C300.639 310.653 302.879 312.307 304.693 314.04C306.533 315.747 307.986 317.76 309.053 320.08C310.146 322.4 310.759 325.093 310.893 328.16C310.919 328.64 310.839 329.133 310.653 329.64C310.466 330.147 310.066 330.88 309.453 331.84C308.679 333.013 308.186 333.733 307.973 334C307.759 334.267 307.546 334.44 307.333 334.52C305.413 335.213 303.013 335.56 300.133 335.56ZM300.213 324.96C301.439 324.96 302.426 324.92 303.173 324.84C302.959 324.147 302.586 323.427 302.053 322.68C301.546 321.933 300.959 321.4 300.293 321.08C299.919 321.427 299.546 321.933 299.173 322.6C298.826 323.24 298.653 323.733 298.653 324.08C298.653 324.427 298.759 324.667 298.973 324.8C299.186 324.907 299.599 324.96 300.213 324.96ZM336.138 324.2C336.298 324.2 336.432 324.427 336.538 324.88C336.645 325.333 336.698 325.893 336.698 326.56V332.6C336.698 333.267 336.632 333.84 336.498 334.32C336.392 334.773 336.272 335 336.138 335H335.258C332.672 335 330.978 334.147 330.178 332.44L329.938 333.16C329.698 333.96 329.312 334.44 328.778 334.6C327.952 334.84 326.992 335.04 325.898 335.2C324.832 335.387 323.792 335.48 322.778 335.48C316.725 335.48 313.698 332.853 313.698 327.6C313.698 326.96 313.778 325.733 313.938 323.92L314.018 322.96H320.618V324.28C320.618 324.493 320.658 324.64 320.738 324.72C320.818 324.8 321.045 324.853 321.418 324.88C321.818 324.88 322.352 324.88 323.018 324.88C324.192 324.88 325.205 324.827 326.058 324.72L322.898 314L330.658 309.88L333.338 322.92C333.418 323.347 333.578 323.653 333.818 323.84C334.085 324.027 334.352 324.133 334.618 324.16C334.912 324.187 335.418 324.2 336.138 324.2ZM336.133 335C335.999 335 335.879 334.773 335.773 334.32C335.639 333.84 335.573 333.267 335.573 332.6V326.56C335.573 325.893 335.626 325.333 335.733 324.88C335.839 324.427 335.973 324.2 336.133 324.2C337.839 324.2 339.159 324.173 340.093 324.12C341.026 324.04 341.799 323.92 342.413 323.76L341.373 315.96L349.453 314.48C349.853 319.627 350.053 323.453 350.053 325.96C350.053 327.267 349.839 328.507 349.413 329.68C349.013 330.827 348.226 331.853 347.053 332.76C345.133 334.253 341.493 335 336.133 335ZM346.053 348.96L341.373 345.08L337.733 349.44L332.533 345.12L336.893 339.84L341.533 343.72L345.213 339.4L350.413 343.76L346.053 348.96ZM362.83 303.24L362.43 335L355.51 335.96L354.63 304.44L362.83 303.24ZM384.822 309.36L380.062 315.12L374.302 310.32L379.102 304.56L384.822 309.36ZM368.422 340.76C371.355 339.133 373.502 337.907 374.862 337.08C376.222 336.253 377.249 335.507 377.942 334.84C378.662 334.173 379.209 333.427 379.582 332.6L377.502 319.92L385.702 318.24C386.342 323.28 386.662 327.44 386.662 330.72C386.662 333.52 386.382 335.827 385.822 337.64C385.289 339.48 384.115 341.293 382.302 343.08C380.515 344.893 377.755 346.867 374.022 349L368.422 340.76ZM399.393 303.24L398.993 335L392.073 335.96L391.193 304.44L399.393 303.24Z" fill="white"/>
</svg>
